<?xml version="1.0" encoding="UTF-8" standalone="no"?>
<svg xmlns="http://www.w3.org/2000/svg" viewBox="0 0 1800 1100" width="1800" height="1100" font-family="-apple-system,Segoe UI,Helvetica,Arial,sans-serif">
  <rect width="100%" height="100%" fill="#F9FAFB"/>
  <rect x="0" y="0" width="1800" height="80" fill="#111827"/>
  <text x="40" y="40" fill="#F9FAFB" font-size="28" font-weight="700">Limitless Infrastructure Cohort Map</text>
  <text x="40" y="65" fill="#D1D5DB" font-size="14">Projected after I3-I20 uplift wave complete</text>
  <text x="1760" y="40" fill="#D1D5DB" font-size="14" text-anchor="end">2026-05-28</text>
  <rect x="1580" y="50" width="180" height="22" fill="#7C2D12" rx="3"/>
  <text x="1670" y="66" fill="#F9FAFB" font-size="12" font-weight="600" text-anchor="middle">projection: projected</text>
  <defs>
    <marker id="arrow" viewBox="0 0 10 10" refX="9" refY="5"
            markerWidth="6" markerHeight="6" orient="auto-start-reverse">
      <path d="M 0 0 L 10 5 L 0 10 z" fill="#374151"/>
    </marker>
  </defs>
  <rect x="20" y="120" width="160" height="266" fill="#E5E7EB" rx="4"/>
  <text x="100" y="249" fill="#1F2937" font-size="16" font-weight="700" text-anchor="middle">foundation</text>
  <text x="100" y="265" fill="#6B7280" font-size="10" text-anchor="middle">layer</text>
  <line x1="200" y1="396" x2="1780" y2="396" stroke="#E5E7EB" stroke-width="1" stroke-dasharray="4 4"/>
  <rect x="20" y="406" width="160" height="266" fill="#E5E7EB" rx="4"/>
  <text x="100" y="535" fill="#1F2937" font-size="16" font-weight="700" text-anchor="middle">engine</text>
  <text x="100" y="551" fill="#6B7280" font-size="10" text-anchor="middle">layer</text>
  <line x1="200" y1="682" x2="1780" y2="682" stroke="#E5E7EB" stroke-width="1" stroke-dasharray="4 4"/>
  <rect x="20" y="692" width="160" height="266" fill="#E5E7EB" rx="4"/>
  <text x="100" y="821" fill="#1F2937" font-size="16" font-weight="700" text-anchor="middle">infrastructure</text>
  <text x="100" y="837" fill="#6B7280" font-size="10" text-anchor="middle">layer</text>
  <line x1="200" y1="968" x2="1780" y2="968" stroke="#E5E7EB" stroke-width="1" stroke-dasharray="4 4"/>
  <line x1="356" y1="539" x2="317" y2="825" stroke="#374151" stroke-width="1" stroke-opacity="0.45" marker-end="url(#arrow)"/>
  <line x1="356" y1="539" x2="740" y2="825" stroke="#374151" stroke-width="1" stroke-opacity="0.45" marker-end="url(#arrow)"/>
  <line x1="668" y1="539" x2="356" y2="539" stroke="#374151" stroke-width="1" stroke-opacity="0.45" marker-end="url(#arrow)"/>
  <line x1="668" y1="539" x2="317" y2="825" stroke="#374151" stroke-width="1" stroke-opacity="0.45" marker-end="url(#arrow)"/>
  <line x1="668" y1="539" x2="458" y2="825" stroke="#374151" stroke-width="1" stroke-opacity="0.45" marker-end="url(#arrow)"/>
  <line x1="668" y1="539" x2="693" y2="825" stroke="#374151" stroke-width="1" stroke-opacity="0.45" marker-end="url(#arrow)"/>
  <line x1="668" y1="539" x2="881" y2="825" stroke="#374151" stroke-width="1" stroke-opacity="0.45" marker-end="url(#arrow)"/>
  <line x1="980" y1="539" x2="317" y2="825" stroke="#374151" stroke-width="1" stroke-opacity="0.45" marker-end="url(#arrow)"/>
  <line x1="1292" y1="539" x2="356" y2="539" stroke="#374151" stroke-width="1" stroke-opacity="0.45" marker-end="url(#arrow)"/>
  <line x1="1292" y1="539" x2="317" y2="825" stroke="#374151" stroke-width="1" stroke-opacity="0.45" marker-end="url(#arrow)"/>
  <line x1="1292" y1="539" x2="458" y2="825" stroke="#374151" stroke-width="1" stroke-opacity="0.45" marker-end="url(#arrow)"/>
  <line x1="1292" y1="539" x2="693" y2="825" stroke="#374151" stroke-width="1" stroke-opacity="0.45" marker-end="url(#arrow)"/>
  <line x1="1604" y1="539" x2="317" y2="825" stroke="#374151" stroke-width="1" stroke-opacity="0.45" marker-end="url(#arrow)"/>
  <line x1="223" y1="825" x2="881" y2="825" stroke="#374151" stroke-width="1" stroke-opacity="0.45" marker-end="url(#arrow)"/>
  <line x1="270" y1="825" x2="881" y2="825" stroke="#374151" stroke-width="1" stroke-opacity="0.45" marker-end="url(#arrow)"/>
  <line x1="317" y1="825" x2="740" y2="825" stroke="#374151" stroke-width="1" stroke-opacity="0.45" marker-end="url(#arrow)"/>
  <line x1="317" y1="825" x2="881" y2="825" stroke="#374151" stroke-width="1" stroke-opacity="0.45" marker-end="url(#arrow)"/>
  <line x1="364" y1="825" x2="317" y2="825" stroke="#374151" stroke-width="1" stroke-opacity="0.45" marker-end="url(#arrow)"/>
  <line x1="411" y1="825" x2="317" y2="825" stroke="#374151" stroke-width="1" stroke-opacity="0.45" marker-end="url(#arrow)"/>
  <line x1="458" y1="825" x2="317" y2="825" stroke="#374151" stroke-width="1" stroke-opacity="0.45" marker-end="url(#arrow)"/>
  <line x1="458" y1="825" x2="458" y2="825" stroke="#374151" stroke-width="1" stroke-opacity="0.45" marker-end="url(#arrow)"/>
  <line x1="458" y1="825" x2="740" y2="825" stroke="#374151" stroke-width="1" stroke-opacity="0.45" marker-end="url(#arrow)"/>
  <line x1="458" y1="825" x2="1069" y2="825" stroke="#374151" stroke-width="1" stroke-opacity="0.45" marker-end="url(#arrow)"/>
  <line x1="505" y1="825" x2="317" y2="825" stroke="#374151" stroke-width="1" stroke-opacity="0.45" marker-end="url(#arrow)"/>
  <line x1="552" y1="825" x2="317" y2="825" stroke="#374151" stroke-width="1" stroke-opacity="0.45" marker-end="url(#arrow)"/>
  <line x1="599" y1="825" x2="317" y2="825" stroke="#374151" stroke-width="1" stroke-opacity="0.45" marker-end="url(#arrow)"/>
  <line x1="599" y1="825" x2="881" y2="825" stroke="#374151" stroke-width="1" stroke-opacity="0.45" marker-end="url(#arrow)"/>
  <line x1="646" y1="825" x2="317" y2="825" stroke="#374151" stroke-width="1" stroke-opacity="0.45" marker-end="url(#arrow)"/>
  <line x1="646" y1="825" x2="881" y2="825" stroke="#374151" stroke-width="1" stroke-opacity="0.45" marker-end="url(#arrow)"/>
  <line x1="693" y1="825" x2="317" y2="825" stroke="#374151" stroke-width="1" stroke-opacity="0.45" marker-end="url(#arrow)"/>
  <line x1="693" y1="825" x2="1069" y2="825" stroke="#374151" stroke-width="1" stroke-opacity="0.45" marker-end="url(#arrow)"/>
  <line x1="693" y1="825" x2="1398" y2="825" stroke="#374151" stroke-width="1" stroke-opacity="0.45" marker-end="url(#arrow)"/>
  <line x1="740" y1="825" x2="317" y2="825" stroke="#374151" stroke-width="1" stroke-opacity="0.45" marker-end="url(#arrow)"/>
  <line x1="740" y1="825" x2="1398" y2="825" stroke="#374151" stroke-width="1" stroke-opacity="0.45" marker-end="url(#arrow)"/>
  <line x1="787" y1="825" x2="317" y2="825" stroke="#374151" stroke-width="1" stroke-opacity="0.45" marker-end="url(#arrow)"/>
  <line x1="881" y1="825" x2="317" y2="825" stroke="#374151" stroke-width="1" stroke-opacity="0.45" marker-end="url(#arrow)"/>
  <line x1="928" y1="825" x2="317" y2="825" stroke="#374151" stroke-width="1" stroke-opacity="0.45" marker-end="url(#arrow)"/>
  <line x1="975" y1="825" x2="317" y2="825" stroke="#374151" stroke-width="1" stroke-opacity="0.45" marker-end="url(#arrow)"/>
  <line x1="1022" y1="825" x2="317" y2="825" stroke="#374151" stroke-width="1" stroke-opacity="0.45" marker-end="url(#arrow)"/>
  <line x1="1163" y1="825" x2="317" y2="825" stroke="#374151" stroke-width="1" stroke-opacity="0.45" marker-end="url(#arrow)"/>
  <line x1="1210" y1="825" x2="356" y2="539" stroke="#374151" stroke-width="1" stroke-opacity="0.45" marker-end="url(#arrow)"/>
  <line x1="1210" y1="825" x2="317" y2="825" stroke="#374151" stroke-width="1" stroke-opacity="0.45" marker-end="url(#arrow)"/>
  <line x1="1210" y1="825" x2="458" y2="825" stroke="#374151" stroke-width="1" stroke-opacity="0.45" marker-end="url(#arrow)"/>
  <line x1="1210" y1="825" x2="668" y2="539" stroke="#374151" stroke-width="1" stroke-opacity="0.45" marker-end="url(#arrow)"/>
  <line x1="1210" y1="825" x2="693" y2="825" stroke="#374151" stroke-width="1" stroke-opacity="0.45" marker-end="url(#arrow)"/>
  <line x1="1210" y1="825" x2="980" y2="539" stroke="#374151" stroke-width="1" stroke-opacity="0.45" marker-end="url(#arrow)"/>
  <line x1="1210" y1="825" x2="1292" y2="539" stroke="#374151" stroke-width="1" stroke-opacity="0.45" marker-end="url(#arrow)"/>
  <line x1="1210" y1="825" x2="1445" y2="825" stroke="#374151" stroke-width="1" stroke-opacity="0.45" marker-end="url(#arrow)"/>
  <line x1="1257" y1="825" x2="317" y2="825" stroke="#374151" stroke-width="1" stroke-opacity="0.45" marker-end="url(#arrow)"/>
  <line x1="1304" y1="825" x2="317" y2="825" stroke="#374151" stroke-width="1" stroke-opacity="0.45" marker-end="url(#arrow)"/>
  <line x1="1351" y1="825" x2="317" y2="825" stroke="#374151" stroke-width="1" stroke-opacity="0.45" marker-end="url(#arrow)"/>
  <line x1="1398" y1="825" x2="317" y2="825" stroke="#374151" stroke-width="1" stroke-opacity="0.45" marker-end="url(#arrow)"/>
  <line x1="1398" y1="825" x2="881" y2="825" stroke="#374151" stroke-width="1" stroke-opacity="0.45" marker-end="url(#arrow)"/>
  <line x1="1445" y1="825" x2="317" y2="825" stroke="#374151" stroke-width="1" stroke-opacity="0.45" marker-end="url(#arrow)"/>
  <line x1="1445" y1="825" x2="881" y2="825" stroke="#374151" stroke-width="1" stroke-opacity="0.45" marker-end="url(#arrow)"/>
  <line x1="1492" y1="825" x2="317" y2="825" stroke="#374151" stroke-width="1" stroke-opacity="0.45" marker-end="url(#arrow)"/>
  <line x1="1539" y1="825" x2="881" y2="825" stroke="#374151" stroke-width="1" stroke-opacity="0.45" marker-end="url(#arrow)"/>
  <line x1="1586" y1="825" x2="317" y2="825" stroke="#374151" stroke-width="1" stroke-opacity="0.45" marker-end="url(#arrow)"/>
  <line x1="1586" y1="825" x2="881" y2="825" stroke="#374151" stroke-width="1" stroke-opacity="0.45" marker-end="url(#arrow)"/>
  <line x1="1633" y1="825" x2="317" y2="825" stroke="#374151" stroke-width="1" stroke-opacity="0.45" marker-end="url(#arrow)"/>
  <line x1="1680" y1="825" x2="317" y2="825" stroke="#374151" stroke-width="1" stroke-opacity="0.45" marker-end="url(#arrow)"/>
  <line x1="1727" y1="825" x2="317" y2="825" stroke="#374151" stroke-width="1" stroke-opacity="0.45" marker-end="url(#arrow)"/>
  <circle cx="693" cy="825" r="32" fill="none" stroke="#F59E0B" stroke-width="2" stroke-dasharray="3 3"/>
  <circle cx="693" cy="825" r="26" fill="#0F766E" stroke="#10B981" stroke-width="4"/>
  <text x="693" y="873" fill="#111827" font-size="11" font-weight="600" text-anchor="middle">grounded</text>
  <text x="693" y="829" fill="#F9FAFB" font-size="11" font-weight="700" text-anchor="middle">33</text>
  <circle cx="671" cy="881" r="4" fill="#10B981"/>
  <circle cx="682" cy="881" r="4" fill="#10B981"/>
  <circle cx="693" cy="881" r="4" fill="#10B981"/>
  <circle cx="704" cy="881" r="4" fill="#10B981"/>
  <circle cx="715" cy="881" r="4" fill="#10B981"/>
  <text x="693" y="901" fill="#6B7280" font-size="9" text-anchor="middle">go</text>
  <circle cx="834" cy="825" r="24" fill="none" stroke="#F59E0B" stroke-width="2" stroke-dasharray="3 3"/>
  <circle cx="834" cy="825" r="18" fill="#374151" stroke="#10B981" stroke-width="4"/>
  <text x="834" y="865" fill="#111827" font-size="11" font-weight="600" text-anchor="middle">limitless-c-crypto</text>
  <text x="834" y="829" fill="#F9FAFB" font-size="11" font-weight="700" text-anchor="middle">4</text>
  <circle cx="812" cy="873" r="4" fill="#10B981"/>
  <circle cx="823" cy="873" r="4" fill="#10B981"/>
  <circle cx="834" cy="873" r="4" fill="#10B981"/>
  <circle cx="845" cy="873" r="4" fill="#10B981"/>
  <circle cx="856" cy="873" r="4" fill="#10B981"/>
  <text x="834" y="893" fill="#6B7280" font-size="9" text-anchor="middle">c</text>
  <circle cx="1492" cy="825" r="20" fill="none" stroke="#F59E0B" stroke-width="2" stroke-dasharray="3 3"/>
  <circle cx="1492" cy="825" r="14" fill="#0F766E" stroke="#10B981" stroke-width="4"/>
  <text x="1492" y="861" fill="#111827" font-size="11" font-weight="600" text-anchor="middle">shadow-service</text>
  <text x="1492" y="829" fill="#F9FAFB" font-size="11" font-weight="700" text-anchor="middle">0</text>
  <circle cx="1470" cy="869" r="4" fill="#10B981"/>
  <circle cx="1481" cy="869" r="4" fill="#10B981"/>
  <circle cx="1492" cy="869" r="4" fill="#10B981"/>
  <circle cx="1503" cy="869" r="4" fill="#10B981"/>
  <circle cx="1514" cy="869" r="4" fill="#10B981"/>
  <text x="1492" y="889" fill="#6B7280" font-size="9" text-anchor="middle">go</text>
  <circle cx="1292" cy="539" r="25" fill="none" stroke="#F59E0B" stroke-width="2" stroke-dasharray="3 3"/>
  <circle cx="1292" cy="539" r="19" fill="#0F766E" stroke="#10B981" stroke-width="4"/>
  <text x="1292" y="580" fill="#111827" font-size="11" font-weight="600" text-anchor="middle">parallax</text>
  <text x="1292" y="543" fill="#F9FAFB" font-size="11" font-weight="700" text-anchor="middle">7</text>
  <circle cx="1270" cy="588" r="4" fill="#10B981"/>
  <circle cx="1281" cy="588" r="4" fill="#10B981"/>
  <circle cx="1292" cy="588" r="4" fill="#10B981"/>
  <circle cx="1303" cy="588" r="4" fill="#10B981"/>
  <circle cx="1314" cy="588" r="4" fill="#10B981"/>
  <text x="1292" y="608" fill="#6B7280" font-size="9" text-anchor="middle">go</text>
  <circle cx="364" cy="825" r="22" fill="none" stroke="#F59E0B" stroke-width="2" stroke-dasharray="3 3"/>
  <circle cx="364" cy="825" r="16" fill="#0F766E" stroke="#10B981" stroke-width="4"/>
  <text x="364" y="863" fill="#111827" font-size="11" font-weight="600" text-anchor="middle">corroboration</text>
  <text x="364" y="829" fill="#F9FAFB" font-size="11" font-weight="700" text-anchor="middle">1</text>
  <circle cx="342" cy="871" r="4" fill="#10B981"/>
  <circle cx="353" cy="871" r="4" fill="#10B981"/>
  <circle cx="364" cy="871" r="4" fill="#10B981"/>
  <circle cx="375" cy="871" r="4" fill="#10B981"/>
  <circle cx="386" cy="871" r="4" fill="#10B981"/>
  <text x="364" y="891" fill="#6B7280" font-size="9" text-anchor="middle">go</text>
  <circle cx="881" cy="825" r="40" fill="none" stroke="#F59E0B" stroke-width="2" stroke-dasharray="3 3"/>
  <circle cx="881" cy="825" r="34" fill="#0F766E" stroke="#10B981" stroke-width="4"/>
  <text x="881" y="881" fill="#111827" font-size="11" font-weight="600" text-anchor="middle">lore</text>
  <text x="881" y="829" fill="#F9FAFB" font-size="11" font-weight="700" text-anchor="middle">95</text>
  <circle cx="859" cy="889" r="4" fill="#10B981"/>
  <circle cx="870" cy="889" r="4" fill="#10B981"/>
  <circle cx="881" cy="889" r="4" fill="#10B981"/>
  <circle cx="892" cy="889" r="4" fill="#10B981"/>
  <circle cx="903" cy="889" r="4" fill="#10B981"/>
  <text x="881" y="909" fill="#6B7280" font-size="9" text-anchor="middle">go</text>
  <circle cx="1022" cy="825" r="22" fill="none" stroke="#F59E0B" stroke-width="2" stroke-dasharray="3 3"/>
  <circle cx="1022" cy="825" r="16" fill="#0F766E" stroke="#10B981" stroke-width="4"/>
  <text x="1022" y="863" fill="#111827" font-size="11" font-weight="600" text-anchor="middle">muse</text>
  <text x="1022" y="829" fill="#F9FAFB" font-size="11" font-weight="700" text-anchor="middle">1</text>
  <circle cx="1000" cy="871" r="4" fill="#10B981"/>
  <circle cx="1011" cy="871" r="4" fill="#10B981"/>
  <circle cx="1022" cy="871" r="4" fill="#10B981"/>
  <circle cx="1033" cy="871" r="4" fill="#10B981"/>
  <circle cx="1044" cy="871" r="4" fill="#10B981"/>
  <text x="1022" y="891" fill="#6B7280" font-size="9" text-anchor="middle">go</text>
  <circle cx="1304" cy="825" r="32" fill="none" stroke="#F59E0B" stroke-width="2" stroke-dasharray="3 3"/>
  <circle cx="1304" cy="825" r="26" fill="#0F766E" stroke="#10B981" stroke-width="4"/>
  <text x="1304" y="873" fill="#111827" font-size="11" font-weight="600" text-anchor="middle">recall</text>
  <text x="1304" y="829" fill="#F9FAFB" font-size="11" font-weight="700" text-anchor="middle">34</text>
  <circle cx="1282" cy="881" r="4" fill="#10B981"/>
  <circle cx="1293" cy="881" r="4" fill="#10B981"/>
  <circle cx="1304" cy="881" r="4" fill="#10B981"/>
  <circle cx="1315" cy="881" r="4" fill="#10B981"/>
  <circle cx="1326" cy="881" r="4" fill="#10B981"/>
  <text x="1304" y="901" fill="#6B7280" font-size="9" text-anchor="middle">go</text>
  <circle cx="1633" cy="825" r="20" fill="none" stroke="#F59E0B" stroke-width="2" stroke-dasharray="3 3"/>
  <circle cx="1633" cy="825" r="14" fill="#0F766E" stroke="#10B981" stroke-width="4"/>
  <text x="1633" y="861" fill="#111827" font-size="11" font-weight="600" text-anchor="middle">switchyard</text>
  <text x="1633" y="829" fill="#F9FAFB" font-size="11" font-weight="700" text-anchor="middle">0</text>
  <circle cx="1611" cy="869" r="4" fill="#10B981"/>
  <circle cx="1622" cy="869" r="4" fill="#10B981"/>
  <circle cx="1633" cy="869" r="4" fill="#10B981"/>
  <circle cx="1644" cy="869" r="4" fill="#10B981"/>
  <circle cx="1655" cy="869" r="4" fill="#10B981"/>
  <text x="1633" y="889" fill="#6B7280" font-size="9" text-anchor="middle">go</text>
  <circle cx="980" cy="253" r="20" fill="none" stroke="#F59E0B" stroke-width="2" stroke-dasharray="3 3"/>
  <circle cx="980" cy="253" r="14" fill="#0F766E" stroke="#10B981" stroke-width="4"/>
  <text x="980" y="289" fill="#111827" font-size="11" font-weight="600" text-anchor="middle">aicore</text>
  <text x="980" y="257" fill="#F9FAFB" font-size="11" font-weight="700" text-anchor="middle">0</text>
  <circle cx="958" cy="297" r="4" fill="#10B981"/>
  <circle cx="969" cy="297" r="4" fill="#10B981"/>
  <circle cx="980" cy="297" r="4" fill="#10B981"/>
  <circle cx="991" cy="297" r="4" fill="#10B981"/>
  <circle cx="1002" cy="297" r="4" fill="#10B981"/>
  <text x="980" y="317" fill="#6B7280" font-size="9" text-anchor="middle">go</text>
  <circle cx="668" cy="539" r="24" fill="none" stroke="#F59E0B" stroke-width="2" stroke-dasharray="3 3"/>
  <circle cx="668" cy="539" r="18" fill="#0F766E" stroke="#10B981" stroke-width="4"/>
  <text x="668" y="579" fill="#111827" font-size="11" font-weight="600" text-anchor="middle">echo</text>
  <text x="668" y="543" fill="#F9FAFB" font-size="11" font-weight="700" text-anchor="middle">5</text>
  <circle cx="646" cy="587" r="4" fill="#10B981"/>
  <circle cx="657" cy="587" r="4" fill="#10B981"/>
  <circle cx="668" cy="587" r="4" fill="#10B981"/>
  <circle cx="679" cy="587" r="4" fill="#10B981"/>
  <circle cx="690" cy="587" r="4" fill="#10B981"/>
  <text x="668" y="607" fill="#6B7280" font-size="9" text-anchor="middle">go</text>
  <circle cx="1210" cy="825" r="20" fill="none" stroke="#F59E0B" stroke-width="2" stroke-dasharray="3 3"/>
  <circle cx="1210" cy="825" r="14" fill="#0F766E" stroke="#10B981" stroke-width="4"/>
  <text x="1210" y="861" fill="#111827" font-size="11" font-weight="600" text-anchor="middle">phantom</text>
  <text x="1210" y="829" fill="#F9FAFB" font-size="11" font-weight="700" text-anchor="middle">0</text>
  <circle cx="1188" cy="869" r="4" fill="#10B981"/>
  <circle cx="1199" cy="869" r="4" fill="#10B981"/>
  <circle cx="1210" cy="869" r="4" fill="#10B981"/>
  <circle cx="1221" cy="869" r="4" fill="#10B981"/>
  <circle cx="1232" cy="869" r="4" fill="#10B981"/>
  <text x="1210" y="889" fill="#6B7280" font-size="9" text-anchor="middle">go</text>
  <circle cx="1351" cy="825" r="20" fill="none" stroke="#F59E0B" stroke-width="2" stroke-dasharray="3 3"/>
  <circle cx="1351" cy="825" r="14" fill="#0F766E" stroke="#10B981" stroke-width="4"/>
  <text x="1351" y="861" fill="#111827" font-size="11" font-weight="600" text-anchor="middle">reservoir</text>
  <text x="1351" y="829" fill="#F9FAFB" font-size="11" font-weight="700" text-anchor="middle">0</text>
  <circle cx="1329" cy="869" r="4" fill="#10B981"/>
  <circle cx="1340" cy="869" r="4" fill="#10B981"/>
  <circle cx="1351" cy="869" r="4" fill="#10B981"/>
  <circle cx="1362" cy="869" r="4" fill="#10B981"/>
  <circle cx="1373" cy="869" r="4" fill="#10B981"/>
  <text x="1351" y="889" fill="#6B7280" font-size="9" text-anchor="middle">go</text>
  <circle cx="552" cy="825" r="20" fill="none" stroke="#F59E0B" stroke-width="2" stroke-dasharray="3 3"/>
  <circle cx="552" cy="825" r="14" fill="#0F766E" stroke="#10B981" stroke-width="4"/>
  <text x="552" y="861" fill="#111827" font-size="11" font-weight="600" text-anchor="middle">forge-central</text>
  <text x="552" y="829" fill="#F9FAFB" font-size="11" font-weight="700" text-anchor="middle">0</text>
  <circle cx="530" cy="869" r="4" fill="#10B981"/>
  <circle cx="541" cy="869" r="4" fill="#10B981"/>
  <circle cx="552" cy="869" r="4" fill="#10B981"/>
  <circle cx="563" cy="869" r="4" fill="#10B981"/>
  <circle cx="574" cy="869" r="4" fill="#10B981"/>
  <text x="552" y="889" fill="#6B7280" font-size="9" text-anchor="middle">go</text>
  <circle cx="740" cy="825" r="32" fill="none" stroke="#F59E0B" stroke-width="2" stroke-dasharray="3 3"/>
  <circle cx="740" cy="825" r="26" fill="#0F766E" stroke="#10B981" stroke-width="4"/>
  <text x="740" y="873" fill="#111827" font-size="11" font-weight="600" text-anchor="middle">ingest</text>
  <text x="740" y="829" fill="#F9FAFB" font-size="11" font-weight="700" text-anchor="middle">33</text>
  <circle cx="718" cy="881" r="4" fill="#10B981"/>
  <circle cx="729" cy="881" r="4" fill="#10B981"/>
  <circle cx="740" cy="881" r="4" fill="#10B981"/>
  <circle cx="751" cy="881" r="4" fill="#10B981"/>
  <circle cx="762" cy="881" r="4" fill="#10B981"/>
  <text x="740" y="901" fill="#6B7280" font-size="9" text-anchor="middle">go</text>
  <circle cx="787" cy="825" r="20" fill="none" stroke="#F59E0B" stroke-width="2" stroke-dasharray="3 3"/>
  <circle cx="787" cy="825" r="14" fill="#0F766E" stroke="#10B981" stroke-width="4"/>
  <text x="787" y="861" fill="#111827" font-size="11" font-weight="600" text-anchor="middle">kiln</text>
  <text x="787" y="829" fill="#F9FAFB" font-size="11" font-weight="700" text-anchor="middle">0</text>
  <circle cx="765" cy="869" r="4" fill="#10B981"/>
  <circle cx="776" cy="869" r="4" fill="#10B981"/>
  <circle cx="787" cy="869" r="4" fill="#10B981"/>
  <circle cx="798" cy="869" r="4" fill="#10B981"/>
  <circle cx="809" cy="869" r="4" fill="#10B981"/>
  <text x="787" y="889" fill="#6B7280" font-size="9" text-anchor="middle">go</text>
  <circle cx="1069" cy="825" r="22" fill="none" stroke="#F59E0B" stroke-width="2" stroke-dasharray="3 3"/>
  <circle cx="1069" cy="825" r="16" fill="#0F766E" stroke="#10B981" stroke-width="4"/>
  <text x="1069" y="863" fill="#111827" font-size="11" font-weight="600" text-anchor="middle">nexus</text>
  <text x="1069" y="829" fill="#F9FAFB" font-size="11" font-weight="700" text-anchor="middle">1</text>
  <circle cx="1047" cy="871" r="4" fill="#10B981"/>
  <circle cx="1058" cy="871" r="4" fill="#10B981"/>
  <circle cx="1069" cy="871" r="4" fill="#10B981"/>
  <circle cx="1080" cy="871" r="4" fill="#10B981"/>
  <circle cx="1091" cy="871" r="4" fill="#10B981"/>
  <text x="1069" y="891" fill="#6B7280" font-size="9" text-anchor="middle">go</text>
  <circle cx="1116" cy="825" r="20" fill="none" stroke="#F59E0B" stroke-width="2" stroke-dasharray="3 3"/>
  <circle cx="1116" cy="825" r="14" fill="#6B7280" stroke="#10B981" stroke-width="4"/>
  <text x="1116" y="861" fill="#111827" font-size="11" font-weight="600" text-anchor="middle">nexus-backups</text>
  <text x="1116" y="829" fill="#F9FAFB" font-size="11" font-weight="700" text-anchor="middle">0</text>
  <circle cx="1094" cy="869" r="4" fill="#10B981"/>
  <circle cx="1105" cy="869" r="4" fill="#10B981"/>
  <circle cx="1116" cy="869" r="4" fill="#10B981"/>
  <circle cx="1127" cy="869" r="4" fill="#10B981"/>
  <circle cx="1138" cy="869" r="4" fill="#10B981"/>
  <text x="1116" y="889" fill="#6B7280" font-size="9" text-anchor="middle">unknown</text>
  <circle cx="1398" cy="825" r="22" fill="none" stroke="#F59E0B" stroke-width="2" stroke-dasharray="3 3"/>
  <circle cx="1398" cy="825" r="16" fill="#0F766E" stroke="#10B981" stroke-width="4"/>
  <text x="1398" y="863" fill="#111827" font-size="11" font-weight="600" text-anchor="middle">schema</text>
  <text x="1398" y="829" fill="#F9FAFB" font-size="11" font-weight="700" text-anchor="middle">1</text>
  <circle cx="1376" cy="871" r="4" fill="#10B981"/>
  <circle cx="1387" cy="871" r="4" fill="#10B981"/>
  <circle cx="1398" cy="871" r="4" fill="#10B981"/>
  <circle cx="1409" cy="871" r="4" fill="#10B981"/>
  <circle cx="1420" cy="871" r="4" fill="#10B981"/>
  <text x="1398" y="891" fill="#6B7280" font-size="9" text-anchor="middle">go</text>
  <circle cx="1445" cy="825" r="32" fill="none" stroke="#F59E0B" stroke-width="2" stroke-dasharray="3 3"/>
  <circle cx="1445" cy="825" r="26" fill="#0F766E" stroke="#10B981" stroke-width="4"/>
  <text x="1445" y="873" fill="#111827" font-size="11" font-weight="600" text-anchor="middle">sentinel</text>
  <text x="1445" y="829" fill="#F9FAFB" font-size="11" font-weight="700" text-anchor="middle">33</text>
  <circle cx="1423" cy="881" r="4" fill="#10B981"/>
  <circle cx="1434" cy="881" r="4" fill="#10B981"/>
  <circle cx="1445" cy="881" r="4" fill="#10B981"/>
  <circle cx="1456" cy="881" r="4" fill="#10B981"/>
  <circle cx="1467" cy="881" r="4" fill="#10B981"/>
  <text x="1445" y="901" fill="#6B7280" font-size="9" text-anchor="middle">go</text>
  <circle cx="1539" cy="825" r="20" fill="none" stroke="#F59E0B" stroke-width="2" stroke-dasharray="3 3"/>
  <circle cx="1539" cy="825" r="14" fill="#0F766E" stroke="#10B981" stroke-width="4"/>
  <text x="1539" y="861" fill="#111827" font-size="11" font-weight="600" text-anchor="middle">shuttle</text>
  <text x="1539" y="829" fill="#F9FAFB" font-size="11" font-weight="700" text-anchor="middle">0</text>
  <circle cx="1517" cy="869" r="4" fill="#10B981"/>
  <circle cx="1528" cy="869" r="4" fill="#10B981"/>
  <circle cx="1539" cy="869" r="4" fill="#10B981"/>
  <circle cx="1550" cy="869" r="4" fill="#10B981"/>
  <circle cx="1561" cy="869" r="4" fill="#10B981"/>
  <text x="1539" y="889" fill="#6B7280" font-size="9" text-anchor="middle">go</text>
  <circle cx="356" cy="539" r="24" fill="none" stroke="#F59E0B" stroke-width="2" stroke-dasharray="3 3"/>
  <circle cx="356" cy="539" r="18" fill="#0F766E" stroke="#10B981" stroke-width="4"/>
  <text x="356" y="579" fill="#111827" font-size="11" font-weight="600" text-anchor="middle">causal</text>
  <text x="356" y="543" fill="#F9FAFB" font-size="11" font-weight="700" text-anchor="middle">5</text>
  <circle cx="334" cy="587" r="4" fill="#10B981"/>
  <circle cx="345" cy="587" r="4" fill="#10B981"/>
  <circle cx="356" cy="587" r="4" fill="#10B981"/>
  <circle cx="367" cy="587" r="4" fill="#10B981"/>
  <circle cx="378" cy="587" r="4" fill="#10B981"/>
  <text x="356" y="607" fill="#6B7280" font-size="9" text-anchor="middle">go</text>
  <circle cx="1604" cy="539" r="22" fill="none" stroke="#F59E0B" stroke-width="2" stroke-dasharray="3 3"/>
  <circle cx="1604" cy="539" r="16" fill="#0F766E" stroke="#10B981" stroke-width="4"/>
  <text x="1604" y="577" fill="#111827" font-size="11" font-weight="600" text-anchor="middle">synthesis</text>
  <text x="1604" y="543" fill="#F9FAFB" font-size="11" font-weight="700" text-anchor="middle">1</text>
  <circle cx="1582" cy="585" r="4" fill="#10B981"/>
  <circle cx="1593" cy="585" r="4" fill="#10B981"/>
  <circle cx="1604" cy="585" r="4" fill="#10B981"/>
  <circle cx="1615" cy="585" r="4" fill="#10B981"/>
  <circle cx="1626" cy="585" r="4" fill="#10B981"/>
  <text x="1604" y="605" fill="#6B7280" font-size="9" text-anchor="middle">go</text>
  <circle cx="411" cy="825" r="20" fill="none" stroke="#F59E0B" stroke-width="2" stroke-dasharray="3 3"/>
  <circle cx="411" cy="825" r="14" fill="#0F766E" stroke="#10B981" stroke-width="4"/>
  <text x="411" y="861" fill="#111827" font-size="11" font-weight="600" text-anchor="middle">crucible-bridge</text>
  <text x="411" y="829" fill="#F9FAFB" font-size="11" font-weight="700" text-anchor="middle">0</text>
  <circle cx="389" cy="869" r="4" fill="#10B981"/>
  <circle cx="400" cy="869" r="4" fill="#10B981"/>
  <circle cx="411" cy="869" r="4" fill="#10B981"/>
  <circle cx="422" cy="869" r="4" fill="#10B981"/>
  <circle cx="433" cy="869" r="4" fill="#10B981"/>
  <text x="411" y="889" fill="#6B7280" font-size="9" text-anchor="middle">go</text>
  <circle cx="1257" cy="825" r="20" fill="none" stroke="#F59E0B" stroke-width="2" stroke-dasharray="3 3"/>
  <circle cx="1257" cy="825" r="14" fill="#0F766E" stroke="#10B981" stroke-width="4"/>
  <text x="1257" y="861" fill="#111827" font-size="11" font-weight="600" text-anchor="middle">piper</text>
  <text x="1257" y="829" fill="#F9FAFB" font-size="11" font-weight="700" text-anchor="middle">0</text>
  <circle cx="1235" cy="869" r="4" fill="#10B981"/>
  <circle cx="1246" cy="869" r="4" fill="#10B981"/>
  <circle cx="1257" cy="869" r="4" fill="#10B981"/>
  <circle cx="1268" cy="869" r="4" fill="#10B981"/>
  <circle cx="1279" cy="869" r="4" fill="#10B981"/>
  <text x="1257" y="889" fill="#6B7280" font-size="9" text-anchor="middle">go</text>
  <circle cx="1586" cy="825" r="20" fill="none" stroke="#F59E0B" stroke-width="2" stroke-dasharray="3 3"/>
  <circle cx="1586" cy="825" r="14" fill="#0F766E" stroke="#10B981" stroke-width="4"/>
  <text x="1586" y="861" fill="#111827" font-size="11" font-weight="600" text-anchor="middle">spyglass</text>
  <text x="1586" y="829" fill="#F9FAFB" font-size="11" font-weight="700" text-anchor="middle">0</text>
  <circle cx="1564" cy="869" r="4" fill="#10B981"/>
  <circle cx="1575" cy="869" r="4" fill="#10B981"/>
  <circle cx="1586" cy="869" r="4" fill="#10B981"/>
  <circle cx="1597" cy="869" r="4" fill="#10B981"/>
  <circle cx="1608" cy="869" r="4" fill="#10B981"/>
  <text x="1586" y="889" fill="#6B7280" font-size="9" text-anchor="middle">go</text>
  <circle cx="1680" cy="825" r="20" fill="none" stroke="#F59E0B" stroke-width="2" stroke-dasharray="3 3"/>
  <circle cx="1680" cy="825" r="14" fill="#0F766E" stroke="#10B981" stroke-width="4"/>
  <text x="1680" y="861" fill="#111827" font-size="11" font-weight="600" text-anchor="middle">toolforge-service</text>
  <text x="1680" y="829" fill="#F9FAFB" font-size="11" font-weight="700" text-anchor="middle">0</text>
  <circle cx="1658" cy="869" r="4" fill="#10B981"/>
  <circle cx="1669" cy="869" r="4" fill="#10B981"/>
  <circle cx="1680" cy="869" r="4" fill="#10B981"/>
  <circle cx="1691" cy="869" r="4" fill="#10B981"/>
  <circle cx="1702" cy="869" r="4" fill="#10B981"/>
  <text x="1680" y="889" fill="#6B7280" font-size="9" text-anchor="middle">go</text>
  <circle cx="1727" cy="825" r="20" fill="none" stroke="#F59E0B" stroke-width="2" stroke-dasharray="3 3"/>
  <circle cx="1727" cy="825" r="14" fill="#0F766E" stroke="#10B981" stroke-width="4"/>
  <text x="1727" y="861" fill="#111827" font-size="11" font-weight="600" text-anchor="middle">vault</text>
  <text x="1727" y="829" fill="#F9FAFB" font-size="11" font-weight="700" text-anchor="middle">0</text>
  <circle cx="1705" cy="869" r="4" fill="#10B981"/>
  <circle cx="1716" cy="869" r="4" fill="#10B981"/>
  <circle cx="1727" cy="869" r="4" fill="#10B981"/>
  <circle cx="1738" cy="869" r="4" fill="#10B981"/>
  <circle cx="1749" cy="869" r="4" fill="#10B981"/>
  <text x="1727" y="889" fill="#6B7280" font-size="9" text-anchor="middle">go</text>
  <circle cx="223" cy="825" r="22" fill="none" stroke="#F59E0B" stroke-width="2" stroke-dasharray="3 3"/>
  <circle cx="223" cy="825" r="16" fill="#0F766E" stroke="#10B981" stroke-width="4"/>
  <text x="223" y="863" fill="#111827" font-size="11" font-weight="600" text-anchor="middle">chronicle</text>
  <text x="223" y="829" fill="#F9FAFB" font-size="11" font-weight="700" text-anchor="middle">2</text>
  <circle cx="201" cy="871" r="4" fill="#10B981"/>
  <circle cx="212" cy="871" r="4" fill="#10B981"/>
  <circle cx="223" cy="871" r="4" fill="#10B981"/>
  <circle cx="234" cy="871" r="4" fill="#10B981"/>
  <circle cx="245" cy="871" r="4" fill="#10B981"/>
  <text x="223" y="891" fill="#6B7280" font-size="9" text-anchor="middle">go</text>
  <circle cx="928" cy="825" r="20" fill="none" stroke="#F59E0B" stroke-width="2" stroke-dasharray="3 3"/>
  <circle cx="928" cy="825" r="14" fill="#0F766E" stroke="#10B981" stroke-width="4"/>
  <text x="928" y="861" fill="#111827" font-size="11" font-weight="600" text-anchor="middle">membrane-service</text>
  <text x="928" y="829" fill="#F9FAFB" font-size="11" font-weight="700" text-anchor="middle">0</text>
  <circle cx="906" cy="869" r="4" fill="#10B981"/>
  <circle cx="917" cy="869" r="4" fill="#10B981"/>
  <circle cx="928" cy="869" r="4" fill="#10B981"/>
  <circle cx="939" cy="869" r="4" fill="#10B981"/>
  <circle cx="950" cy="869" r="4" fill="#10B981"/>
  <text x="928" y="889" fill="#6B7280" font-size="9" text-anchor="middle">go</text>
  <circle cx="1163" cy="825" r="20" fill="none" stroke="#F59E0B" stroke-width="2" stroke-dasharray="3 3"/>
  <circle cx="1163" cy="825" r="14" fill="#0F766E" stroke="#10B981" stroke-width="4"/>
  <text x="1163" y="861" fill="#111827" font-size="11" font-weight="600" text-anchor="middle">pennant</text>
  <text x="1163" y="829" fill="#F9FAFB" font-size="11" font-weight="700" text-anchor="middle">0</text>
  <circle cx="1141" cy="869" r="4" fill="#10B981"/>
  <circle cx="1152" cy="869" r="4" fill="#10B981"/>
  <circle cx="1163" cy="869" r="4" fill="#10B981"/>
  <circle cx="1174" cy="869" r="4" fill="#10B981"/>
  <circle cx="1185" cy="869" r="4" fill="#10B981"/>
  <text x="1163" y="889" fill="#6B7280" font-size="9" text-anchor="middle">go</text>
  <circle cx="980" cy="539" r="22" fill="none" stroke="#F59E0B" stroke-width="2" stroke-dasharray="3 3"/>
  <circle cx="980" cy="539" r="16" fill="#0F766E" stroke="#10B981" stroke-width="4"/>
  <text x="980" y="577" fill="#111827" font-size="11" font-weight="600" text-anchor="middle">oracle</text>
  <text x="980" y="543" fill="#F9FAFB" font-size="11" font-weight="700" text-anchor="middle">1</text>
  <circle cx="958" cy="585" r="4" fill="#10B981"/>
  <circle cx="969" cy="585" r="4" fill="#10B981"/>
  <circle cx="980" cy="585" r="4" fill="#10B981"/>
  <circle cx="991" cy="585" r="4" fill="#10B981"/>
  <circle cx="1002" cy="585" r="4" fill="#10B981"/>
  <text x="980" y="605" fill="#6B7280" font-size="9" text-anchor="middle">go</text>
  <circle cx="317" cy="825" r="33" fill="none" stroke="#F59E0B" stroke-width="2" stroke-dasharray="3 3"/>
  <circle cx="317" cy="825" r="27" fill="#0F766E" stroke="#10B981" stroke-width="4"/>
  <text x="317" y="874" fill="#111827" font-size="11" font-weight="600" text-anchor="middle">conduit</text>
  <text x="317" y="829" fill="#F9FAFB" font-size="11" font-weight="700" text-anchor="middle">39</text>
  <circle cx="295" cy="882" r="4" fill="#10B981"/>
  <circle cx="306" cy="882" r="4" fill="#10B981"/>
  <circle cx="317" cy="882" r="4" fill="#10B981"/>
  <circle cx="328" cy="882" r="4" fill="#10B981"/>
  <circle cx="339" cy="882" r="4" fill="#10B981"/>
  <text x="317" y="902" fill="#6B7280" font-size="9" text-anchor="middle">go</text>
  <circle cx="458" cy="825" r="32" fill="none" stroke="#F59E0B" stroke-width="2" stroke-dasharray="3 3"/>
  <circle cx="458" cy="825" r="26" fill="#0F766E" stroke="#10B981" stroke-width="4"/>
  <text x="458" y="873" fill="#111827" font-size="11" font-weight="600" text-anchor="middle">delve</text>
  <text x="458" y="829" fill="#F9FAFB" font-size="11" font-weight="700" text-anchor="middle">38</text>
  <circle cx="436" cy="881" r="4" fill="#10B981"/>
  <circle cx="447" cy="881" r="4" fill="#10B981"/>
  <circle cx="458" cy="881" r="4" fill="#10B981"/>
  <circle cx="469" cy="881" r="4" fill="#10B981"/>
  <circle cx="480" cy="881" r="4" fill="#10B981"/>
  <text x="458" y="901" fill="#6B7280" font-size="9" text-anchor="middle">go</text>
  <circle cx="599" cy="825" r="20" fill="none" stroke="#F59E0B" stroke-width="2" stroke-dasharray="3 3"/>
  <circle cx="599" cy="825" r="14" fill="#0F766E" stroke="#10B981" stroke-width="4"/>
  <text x="599" y="861" fill="#111827" font-size="11" font-weight="600" text-anchor="middle">forge-registry</text>
  <text x="599" y="829" fill="#F9FAFB" font-size="11" font-weight="700" text-anchor="middle">0</text>
  <circle cx="577" cy="869" r="4" fill="#10B981"/>
  <circle cx="588" cy="869" r="4" fill="#10B981"/>
  <circle cx="599" cy="869" r="4" fill="#10B981"/>
  <circle cx="610" cy="869" r="4" fill="#10B981"/>
  <circle cx="621" cy="869" r="4" fill="#10B981"/>
  <text x="599" y="889" fill="#6B7280" font-size="9" text-anchor="middle">go</text>
  <circle cx="646" cy="825" r="20" fill="none" stroke="#F59E0B" stroke-width="2" stroke-dasharray="3 3"/>
  <circle cx="646" cy="825" r="14" fill="#0F766E" stroke="#10B981" stroke-width="4"/>
  <text x="646" y="861" fill="#111827" font-size="11" font-weight="600" text-anchor="middle">gauntlet</text>
  <text x="646" y="829" fill="#F9FAFB" font-size="11" font-weight="700" text-anchor="middle">0</text>
  <circle cx="624" cy="869" r="4" fill="#10B981"/>
  <circle cx="635" cy="869" r="4" fill="#10B981"/>
  <circle cx="646" cy="869" r="4" fill="#10B981"/>
  <circle cx="657" cy="869" r="4" fill="#10B981"/>
  <circle cx="668" cy="869" r="4" fill="#10B981"/>
  <text x="646" y="889" fill="#6B7280" font-size="9" text-anchor="middle">go</text>
  <circle cx="270" cy="825" r="20" fill="none" stroke="#F59E0B" stroke-width="2" stroke-dasharray="3 3"/>
  <circle cx="270" cy="825" r="14" fill="#0F766E" stroke="#10B981" stroke-width="4"/>
  <text x="270" y="861" fill="#111827" font-size="11" font-weight="600" text-anchor="middle">codex</text>
  <text x="270" y="829" fill="#F9FAFB" font-size="11" font-weight="700" text-anchor="middle">0</text>
  <circle cx="248" cy="869" r="4" fill="#10B981"/>
  <circle cx="259" cy="869" r="4" fill="#10B981"/>
  <circle cx="270" cy="869" r="4" fill="#10B981"/>
  <circle cx="281" cy="869" r="4" fill="#10B981"/>
  <circle cx="292" cy="869" r="4" fill="#10B981"/>
  <text x="270" y="889" fill="#6B7280" font-size="9" text-anchor="middle">go</text>
  <circle cx="505" cy="825" r="20" fill="none" stroke="#F59E0B" stroke-width="2" stroke-dasharray="3 3"/>
  <circle cx="505" cy="825" r="14" fill="#0F766E" stroke="#10B981" stroke-width="4"/>
  <text x="505" y="861" fill="#111827" font-size="11" font-weight="600" text-anchor="middle">escape-service</text>
  <text x="505" y="829" fill="#F9FAFB" font-size="11" font-weight="700" text-anchor="middle">0</text>
  <circle cx="483" cy="869" r="4" fill="#10B981"/>
  <circle cx="494" cy="869" r="4" fill="#10B981"/>
  <circle cx="505" cy="869" r="4" fill="#10B981"/>
  <circle cx="516" cy="869" r="4" fill="#10B981"/>
  <circle cx="527" cy="869" r="4" fill="#10B981"/>
  <text x="505" y="889" fill="#6B7280" font-size="9" text-anchor="middle">go</text>
  <circle cx="975" cy="825" r="22" fill="none" stroke="#F59E0B" stroke-width="2" stroke-dasharray="3 3"/>
  <circle cx="975" cy="825" r="16" fill="#0F766E" stroke="#10B981" stroke-width="4"/>
  <text x="975" y="863" fill="#111827" font-size="11" font-weight="600" text-anchor="middle">mint</text>
  <text x="975" y="829" fill="#F9FAFB" font-size="11" font-weight="700" text-anchor="middle">1</text>
  <circle cx="953" cy="871" r="4" fill="#10B981"/>
  <circle cx="964" cy="871" r="4" fill="#10B981"/>
  <circle cx="975" cy="871" r="4" fill="#10B981"/>
  <circle cx="986" cy="871" r="4" fill="#10B981"/>
  <circle cx="997" cy="871" r="4" fill="#10B981"/>
  <text x="975" y="891" fill="#6B7280" font-size="9" text-anchor="middle">go</text>
  <text x="40" y="990" fill="#1F2937" font-size="13" font-weight="700">Legend</text>
  <rect x="110" y="980" width="12" height="12" fill="#374151" rx="2"/>
  <text x="126" y="990" fill="#1F2937" font-size="11">c</text>
  <rect x="210" y="980" width="12" height="12" fill="#581C87" rx="2"/>
  <text x="226" y="990" fill="#1F2937" font-size="11">crystal</text>
  <rect x="310" y="980" width="12" height="12" fill="#7C2D12" rx="2"/>
  <text x="326" y="990" fill="#1F2937" font-size="11">elixir</text>
  <rect x="410" y="980" width="12" height="12" fill="#0F766E" rx="2"/>
  <text x="426" y="990" fill="#1F2937" font-size="11">go</text>
  <rect x="510" y="980" width="12" height="12" fill="#F59E0B" rx="2"/>
  <text x="526" y="990" fill="#1F2937" font-size="11">javascript</text>
  <rect x="610" y="980" width="12" height="12" fill="#1E3A8A" rx="2"/>
  <text x="626" y="990" fill="#1F2937" font-size="11">python</text>
  <rect x="710" y="980" width="12" height="12" fill="#9A3412" rx="2"/>
  <text x="726" y="990" fill="#1F2937" font-size="11">rust</text>
  <rect x="810" y="980" width="12" height="12" fill="#1D4ED8" rx="2"/>
  <text x="826" y="990" fill="#1F2937" font-size="11">typescript</text>
  <rect x="910" y="980" width="12" height="12" fill="#6B7280" rx="2"/>
  <text x="926" y="990" fill="#1F2937" font-size="11">unknown</text>
  <text x="40" y="1014" fill="#1F2937" font-size="11" font-weight="600">R174 5-of-5:</text>
  <circle cx="160" cy="1010" r="4" fill="#10B981"/>
  <text x="172" y="1014" font-size="10" fill="#1F2937">present</text>
  <circle cx="240" cy="1010" r="4" fill="#9CA3AF"/>
  <text x="252" y="1014" font-size="10" fill="#1F2937">absent</text>
  <text x="330" y="1014" font-size="10" fill="#1F2937">pips left→right: mirrormark · honest · legal · manifest · firewall</text>
  <text x="40" y="1034" fill="#1F2937" font-size="11" font-weight="600">Border:</text>
  <circle cx="100" cy="1030" r="6" fill="#0F766E" stroke="#10B981" stroke-width="3"/>
  <text x="112" y="1034" font-size="10" fill="#1F2937">thick = load-bearing wire-in (production code calls Sign)</text>
  <text x="40" y="1052" fill="#1F2937" font-size="11" font-weight="600">Halo:</text>
  <circle cx="100" cy="1048" r="6" fill="#0F766E"/>
  <circle cx="100" cy="1048" r="9" fill="none" stroke="#F59E0B" stroke-width="2" stroke-dasharray="3 3"/>
  <text x="112" y="1052" font-size="10" fill="#1F2937">dashed amber = KAT-1 hex pinned</text>
  <rect x="0" y="1070" width="1800" height="30" fill="#111827"/>
  <text x="40" y="1090" fill="#D1D5DB" font-size="11">infra-cohort-map v0.1.0 · scanned 39 components · flagships 131</text>
  <text x="1760" y="1090" fill="#D1D5DB" font-size="11" text-anchor="end">KAT-1 239a7d0d3f1bbe3a…</text>
</svg>
